<svg version="1.1" id="Layer_1" xmlns="http://www.w3.org/2000/svg" xmlns:xlink="http://www.w3.org/1999/xlink" x="0px" y="0px"
	 width="100%" viewBox="0 0 84 88" enable-background="new 0 0 84 88" xml:space="preserve">
<path  fill="bg-[#151515]" opacity="0.010000" stroke="none" 
	d="
M44.000000,89.000000 
	C29.333336,89.000000 15.166672,89.000000 1.000004,89.000000 
	C1.000000,60.833340 1.058038,32.666389 0.914817,4.500456 
	C0.899641,1.515865 1.515335,0.897267 4.500468,0.914438 
	C30.332943,1.063027 56.166801,1.040966 81.999695,0.934728 
	C84.500412,0.924444 85.074631,1.499451 85.065117,4.000209 
	C84.961189,31.333143 84.961197,58.666767 85.065094,85.999702 
	C85.074608,88.500229 84.503746,89.097458 81.999252,89.067764 
	C69.500992,88.919563 57.000019,89.000000 44.000000,89.000000 
z"/>
<path fill="#555555" opacity="1.000000" stroke="none" 
	d="
M59.448875,47.018440 
	C58.826126,48.317955 58.340195,49.422421 57.547188,50.222523 
	C48.992588,58.853668 40.401112,67.448425 31.784393,76.017609 
	C30.784986,77.011505 29.647425,78.700890 28.045168,77.291077 
	C26.122301,75.599159 27.945282,74.299545 29.047840,73.185379 
	C36.541908,65.612480 43.992519,57.992344 51.657940,50.595531 
	C54.358612,47.989498 54.247265,46.260868 51.599293,43.705841 
	C44.173439,36.540649 36.946503,29.167324 29.730671,21.788511 
	C28.603348,20.635727 26.022905,19.420527 27.829086,17.421410 
	C29.551918,15.514541 31.170435,17.524443 32.384113,18.787399 
	C41.360264,28.128002 51.279106,36.555042 59.448875,47.018440 
z"/>
</svg>