<svg xmlns="http://www.w3.org/2000/svg" viewBox="0 0 47.5 47.5" id="p"><defs><clipPath id="a"><path d="M0 38h38V0H0v38Z"></path></clipPath></defs><g clip-path="url(#a)" transform="matrix(1.25 0 0 -1.25 0 47.5)"><path fill="#269" d="M37 5a4 4 0 0 0-4-4H5a4 4 0 0 0-4 4v28a4 4 0 0 0 4 4h28a4 4 0 0 0 4-4V5Z"></path><path fill="#fff" d="M17 19h3.063c2.017 0 3.296 1.465 3.296 3.385 0 1.92-1.279 3.391-3.296 3.391H17V19Zm-5 8.504c0 1.504.896 2.496 2.496 2.496h5.664c4.703 0 8.192-2.944 8.192-7.52 0-4.67-3.618-7.48-8-7.48H17V9.521c0-1.599-1.024-2.496-2.4-2.496S12 7.922 12 9.521v17.983z"></path></g></svg>